<mxfile host="app.diagrams.net" agent="Mozilla/5.0 (Macintosh; Intel Mac OS X 10_15_7) AppleWebKit/605.1.15 (KHTML, like Gecko) Version/18.3.1 Safari/605.1.15" version="26.2.8">
  <diagram name="Page-1" id="W04zyf1lPujCVIqNp2oY">
    <mxGraphModel dx="1303" dy="627" grid="1" gridSize="10" guides="1" tooltips="1" connect="1" arrows="1" fold="1" page="1" pageScale="1" pageWidth="827" pageHeight="1169" math="0" shadow="0">
      <root>
        <mxCell id="0" />
        <mxCell id="1" parent="0" />
        <mxCell id="eEwVYgS2m5M2uQdrPHw_-7" value="dataReady" style="edgeStyle=orthogonalEdgeStyle;rounded=0;orthogonalLoop=1;jettySize=auto;html=1;entryX=0.5;entryY=0;entryDx=0;entryDy=0;" edge="1" parent="1" source="eEwVYgS2m5M2uQdrPHw_-1" target="eEwVYgS2m5M2uQdrPHw_-2">
          <mxGeometry relative="1" as="geometry">
            <Array as="points">
              <mxPoint x="350" y="25" />
            </Array>
          </mxGeometry>
        </mxCell>
        <mxCell id="eEwVYgS2m5M2uQdrPHw_-40" value="readReady" style="edgeStyle=orthogonalEdgeStyle;rounded=0;orthogonalLoop=1;jettySize=auto;html=1;entryX=0.5;entryY=0;entryDx=0;entryDy=0;" edge="1" parent="1" source="eEwVYgS2m5M2uQdrPHw_-1" target="eEwVYgS2m5M2uQdrPHw_-20">
          <mxGeometry relative="1" as="geometry" />
        </mxCell>
        <mxCell id="eEwVYgS2m5M2uQdrPHw_-1" value="Idle" style="rounded=1;whiteSpace=wrap;html=1;" vertex="1" parent="1">
          <mxGeometry x="450" width="120" height="50" as="geometry" />
        </mxCell>
        <mxCell id="eEwVYgS2m5M2uQdrPHw_-8" style="edgeStyle=orthogonalEdgeStyle;rounded=0;orthogonalLoop=1;jettySize=auto;html=1;" edge="1" parent="1" source="eEwVYgS2m5M2uQdrPHw_-2" target="eEwVYgS2m5M2uQdrPHw_-3">
          <mxGeometry relative="1" as="geometry" />
        </mxCell>
        <mxCell id="eEwVYgS2m5M2uQdrPHw_-2" value="asking_for_buffer" style="rounded=1;whiteSpace=wrap;html=1;" vertex="1" parent="1">
          <mxGeometry x="290" y="140" width="120" height="60" as="geometry" />
        </mxCell>
        <mxCell id="eEwVYgS2m5M2uQdrPHw_-9" style="edgeStyle=orthogonalEdgeStyle;rounded=0;orthogonalLoop=1;jettySize=auto;html=1;" edge="1" parent="1" source="eEwVYgS2m5M2uQdrPHw_-3" target="eEwVYgS2m5M2uQdrPHw_-4">
          <mxGeometry relative="1" as="geometry" />
        </mxCell>
        <mxCell id="eEwVYgS2m5M2uQdrPHw_-3" value="reading_from_buffer" style="rounded=1;whiteSpace=wrap;html=1;" vertex="1" parent="1">
          <mxGeometry x="290" y="230" width="120" height="60" as="geometry" />
        </mxCell>
        <mxCell id="eEwVYgS2m5M2uQdrPHw_-10" value="granted" style="edgeStyle=orthogonalEdgeStyle;rounded=0;orthogonalLoop=1;jettySize=auto;html=1;" edge="1" parent="1" source="eEwVYgS2m5M2uQdrPHw_-4" target="eEwVYgS2m5M2uQdrPHw_-5">
          <mxGeometry relative="1" as="geometry" />
        </mxCell>
        <mxCell id="eEwVYgS2m5M2uQdrPHw_-44" value="not granted" style="edgeStyle=orthogonalEdgeStyle;rounded=0;orthogonalLoop=1;jettySize=auto;html=1;exitX=1;exitY=0.25;exitDx=0;exitDy=0;entryX=1;entryY=0.75;entryDx=0;entryDy=0;" edge="1" parent="1" source="eEwVYgS2m5M2uQdrPHw_-4" target="eEwVYgS2m5M2uQdrPHw_-4">
          <mxGeometry relative="1" as="geometry">
            <mxPoint x="420" y="370" as="targetPoint" />
            <Array as="points">
              <mxPoint x="450" y="335" />
              <mxPoint x="450" y="365" />
            </Array>
          </mxGeometry>
        </mxCell>
        <mxCell id="eEwVYgS2m5M2uQdrPHw_-4" value="write_request" style="rounded=1;whiteSpace=wrap;html=1;" vertex="1" parent="1">
          <mxGeometry x="290" y="320" width="120" height="60" as="geometry" />
        </mxCell>
        <mxCell id="eEwVYgS2m5M2uQdrPHw_-11" style="edgeStyle=orthogonalEdgeStyle;rounded=0;orthogonalLoop=1;jettySize=auto;html=1;" edge="1" parent="1" source="eEwVYgS2m5M2uQdrPHw_-5" target="eEwVYgS2m5M2uQdrPHw_-6">
          <mxGeometry relative="1" as="geometry" />
        </mxCell>
        <mxCell id="eEwVYgS2m5M2uQdrPHw_-5" value="write_&lt;div&gt;sending_&lt;/div&gt;&lt;div&gt;handshake&lt;/div&gt;" style="rounded=1;whiteSpace=wrap;html=1;" vertex="1" parent="1">
          <mxGeometry x="290" y="410" width="120" height="60" as="geometry" />
        </mxCell>
        <mxCell id="eEwVYgS2m5M2uQdrPHw_-12" style="edgeStyle=orthogonalEdgeStyle;rounded=0;orthogonalLoop=1;jettySize=auto;html=1;entryX=0.5;entryY=1;entryDx=0;entryDy=0;exitX=0;exitY=0.5;exitDx=0;exitDy=0;" edge="1" parent="1" source="eEwVYgS2m5M2uQdrPHw_-37" target="eEwVYgS2m5M2uQdrPHw_-1">
          <mxGeometry relative="1" as="geometry">
            <mxPoint x="450" y="30" as="targetPoint" />
            <Array as="points">
              <mxPoint x="250" y="650" />
              <mxPoint x="250" y="75" />
              <mxPoint x="510" y="75" />
            </Array>
          </mxGeometry>
        </mxCell>
        <mxCell id="eEwVYgS2m5M2uQdrPHw_-38" style="edgeStyle=orthogonalEdgeStyle;rounded=0;orthogonalLoop=1;jettySize=auto;html=1;entryX=0.5;entryY=0;entryDx=0;entryDy=0;exitX=0.5;exitY=1;exitDx=0;exitDy=0;" edge="1" parent="1" source="eEwVYgS2m5M2uQdrPHw_-6" target="eEwVYgS2m5M2uQdrPHw_-37">
          <mxGeometry relative="1" as="geometry">
            <Array as="points">
              <mxPoint x="350" y="590" />
              <mxPoint x="474" y="590" />
            </Array>
          </mxGeometry>
        </mxCell>
        <mxCell id="eEwVYgS2m5M2uQdrPHw_-43" value="busyIN" style="edgeStyle=orthogonalEdgeStyle;rounded=0;orthogonalLoop=1;jettySize=auto;html=1;exitX=1;exitY=0.25;exitDx=0;exitDy=0;" edge="1" parent="1" source="eEwVYgS2m5M2uQdrPHw_-6">
          <mxGeometry relative="1" as="geometry">
            <mxPoint x="411" y="550" as="targetPoint" />
            <Array as="points">
              <mxPoint x="461" y="515" />
              <mxPoint x="461" y="550" />
            </Array>
          </mxGeometry>
        </mxCell>
        <mxCell id="eEwVYgS2m5M2uQdrPHw_-6" value="sending_data" style="rounded=1;whiteSpace=wrap;html=1;" vertex="1" parent="1">
          <mxGeometry x="290" y="500" width="120" height="60" as="geometry" />
        </mxCell>
        <mxCell id="eEwVYgS2m5M2uQdrPHw_-19" value="granted" style="edgeStyle=orthogonalEdgeStyle;rounded=0;orthogonalLoop=1;jettySize=auto;html=1;" edge="1" parent="1" source="eEwVYgS2m5M2uQdrPHw_-20" target="eEwVYgS2m5M2uQdrPHw_-22">
          <mxGeometry relative="1" as="geometry" />
        </mxCell>
        <mxCell id="eEwVYgS2m5M2uQdrPHw_-45" value="not granted" style="edgeStyle=orthogonalEdgeStyle;rounded=0;orthogonalLoop=1;jettySize=auto;html=1;exitX=0;exitY=0.25;exitDx=0;exitDy=0;entryX=0;entryY=0.75;entryDx=0;entryDy=0;" edge="1" parent="1" source="eEwVYgS2m5M2uQdrPHw_-20" target="eEwVYgS2m5M2uQdrPHw_-20">
          <mxGeometry relative="1" as="geometry">
            <mxPoint x="620" y="150" as="targetPoint" />
            <Array as="points">
              <mxPoint x="600" y="125" />
              <mxPoint x="600" y="155" />
            </Array>
          </mxGeometry>
        </mxCell>
        <mxCell id="eEwVYgS2m5M2uQdrPHw_-20" value="Read_request" style="rounded=1;whiteSpace=wrap;html=1;" vertex="1" parent="1">
          <mxGeometry x="630" y="110" width="120" height="60" as="geometry" />
        </mxCell>
        <mxCell id="eEwVYgS2m5M2uQdrPHw_-21" style="edgeStyle=orthogonalEdgeStyle;rounded=0;orthogonalLoop=1;jettySize=auto;html=1;" edge="1" parent="1" source="eEwVYgS2m5M2uQdrPHw_-22" target="eEwVYgS2m5M2uQdrPHw_-24">
          <mxGeometry relative="1" as="geometry" />
        </mxCell>
        <mxCell id="eEwVYgS2m5M2uQdrPHw_-22" value="read_&lt;div&gt;sending_&lt;/div&gt;&lt;div&gt;handshake&lt;/div&gt;" style="rounded=1;whiteSpace=wrap;html=1;" vertex="1" parent="1">
          <mxGeometry x="630" y="200" width="120" height="60" as="geometry" />
        </mxCell>
        <mxCell id="eEwVYgS2m5M2uQdrPHw_-39" style="edgeStyle=orthogonalEdgeStyle;rounded=0;orthogonalLoop=1;jettySize=auto;html=1;" edge="1" parent="1" source="eEwVYgS2m5M2uQdrPHw_-24" target="eEwVYgS2m5M2uQdrPHw_-26">
          <mxGeometry relative="1" as="geometry" />
        </mxCell>
        <mxCell id="eEwVYgS2m5M2uQdrPHw_-24" value="reading_data" style="rounded=1;whiteSpace=wrap;html=1;" vertex="1" parent="1">
          <mxGeometry x="630" y="290" width="120" height="60" as="geometry" />
        </mxCell>
        <mxCell id="eEwVYgS2m5M2uQdrPHw_-25" style="edgeStyle=orthogonalEdgeStyle;rounded=0;orthogonalLoop=1;jettySize=auto;html=1;" edge="1" parent="1" source="eEwVYgS2m5M2uQdrPHw_-26" target="eEwVYgS2m5M2uQdrPHw_-27">
          <mxGeometry relative="1" as="geometry" />
        </mxCell>
        <mxCell id="eEwVYgS2m5M2uQdrPHw_-26" value="writting_buffer" style="rounded=1;whiteSpace=wrap;html=1;" vertex="1" parent="1">
          <mxGeometry x="630" y="380" width="120" height="60" as="geometry" />
        </mxCell>
        <mxCell id="eEwVYgS2m5M2uQdrPHw_-27" value="read_data" style="rounded=1;whiteSpace=wrap;html=1;" vertex="1" parent="1">
          <mxGeometry x="630" y="470" width="120" height="60" as="geometry" />
        </mxCell>
        <mxCell id="eEwVYgS2m5M2uQdrPHw_-37" value="end_transaction" style="rounded=1;whiteSpace=wrap;html=1;" vertex="1" parent="1">
          <mxGeometry x="414" y="620" width="120" height="60" as="geometry" />
        </mxCell>
        <mxCell id="eEwVYgS2m5M2uQdrPHw_-41" value="end_transactionIN" style="edgeStyle=orthogonalEdgeStyle;rounded=0;orthogonalLoop=1;jettySize=auto;html=1;entryX=1.008;entryY=0.617;entryDx=0;entryDy=0;entryPerimeter=0;" edge="1" parent="1" source="eEwVYgS2m5M2uQdrPHw_-27" target="eEwVYgS2m5M2uQdrPHw_-37">
          <mxGeometry relative="1" as="geometry">
            <Array as="points">
              <mxPoint x="690" y="657" />
            </Array>
          </mxGeometry>
        </mxCell>
      </root>
    </mxGraphModel>
  </diagram>
</mxfile>
